<svg width="1000" height="1000" viewBox="0 0 1000 1000" fill="none" xmlns="http://www.w3.org/2000/svg">
<g id="day49-angler-fish 1">
<g id="background">
<path id="XMLID 1" d="M389.724 243.867C325.924 292.767 368.824 379.167 301.724 425.867C257.024 456.967 209.024 438.767 181.124 480.167C165.324 503.667 166.324 530.267 167.724 545.667C181.724 695.867 314.924 887.867 500.324 841.867C685.724 795.867 601.324 673.867 730.024 629.367C782.924 611.067 839.824 596.167 859.324 504.167C871.324 447.567 853.324 363.367 802.224 343.067C754.824 324.267 724.524 374.667 670.424 356.567C616.124 338.367 626.024 278.667 565.724 241.867C516.024 211.567 436.624 207.867 389.724 243.867Z" fill="#83EAE0"/>
</g>
<g id="Group">
<g id="light-shadow">
<path id="XMLID 17" opacity="0.79" d="M253.9 659.8C310.73 659.8 356.8 615.297 356.8 560.4C356.8 505.503 310.73 461 253.9 461C197.07 461 151 505.503 151 560.4C151 615.297 197.07 659.8 253.9 659.8Z" fill="url(#paint0_radial)"/>
</g>
<g id="wings2">
<path id="XMLID 21" d="M626.2 493.378C626.2 493.378 641.4 489.678 670.4 460.678C699.4 431.678 748.2 406.178 766.1 464.378C776.7 498.778 769.2 576.678 734.5 584.878C711.2 590.478 686.6 571.778 671.1 556.278C655.6 540.778 626.1 533.078 626.1 533.078V493.378H626.2Z" fill="#00B763"/>
</g>
<path id="XMLID 46" opacity="0.8" d="M640.8 499.578C640.8 499.578 690.3 485.678 723.3 452.678" stroke="#442753" stroke-width="4" stroke-miterlimit="10" stroke-linecap="round" stroke-linejoin="round"/>
<path id="XMLID 47" opacity="0.8" d="M642.2 510.178C642.2 510.178 714.4 500.678 741.7 488.778" stroke="#442753" stroke-width="4" stroke-miterlimit="10" stroke-linecap="round" stroke-linejoin="round"/>
<path id="XMLID 48" opacity="0.8" d="M642.5 530.178C642.5 530.178 682.9 540.078 723.3 563.978" stroke="#442753" stroke-width="4" stroke-miterlimit="10" stroke-linecap="round" stroke-linejoin="round"/>
<path id="XMLID 49" opacity="0.8" d="M642.5 522.178C642.5 522.178 712.7 528.378 741.7 528.378" stroke="#442753" stroke-width="4" stroke-miterlimit="10" stroke-linecap="round" stroke-linejoin="round"/>
<path id="XMLID 20" d="M480.2 390.878C480.2 390.878 484.9 371.878 492.7 364.378C500.5 356.878 513.4 354.678 540.5 359.678C567.5 364.678 587.2 373.878 587.2 384.378C587.2 389.378 567.6 406.278 562.8 406.278C558 406.278 493.8 389.078 480.2 390.878Z" fill="#00B763"/>
<g id="wings3">
<path id="XMLID 40" opacity="0.8" d="M503.4 385.678C503.4 385.678 508.5 373.678 518.6 368.678" stroke="#442753" stroke-width="4" stroke-miterlimit="10" stroke-linecap="round" stroke-linejoin="round"/>
</g>
<path id="XMLID 90" opacity="0.8" d="M542 373.678C530.5 377.178 521.5 389.678 521.5 389.678" stroke="#442753" stroke-width="4" stroke-miterlimit="10" stroke-linecap="round" stroke-linejoin="round"/>
<path id="XMLID 94" opacity="0.8" d="M542 392.378C542 392.378 551 381.578 566 381.578" stroke="#442753" stroke-width="4" stroke-miterlimit="10" stroke-linecap="round" stroke-linejoin="round"/>
<g id="wings1">
<path id="XMLID 19" d="M454.1 648.878C454.1 648.878 478.6 680.378 491.1 692.878C503.6 705.378 601.1 681.878 612.1 670.878C623.1 659.878 626.1 634.878 568.1 620.878C568.2 620.878 515.7 664.678 454.1 648.878Z" fill="#00B763"/>
</g>
<path id="XMLID 27" opacity="0.8" d="M494.5 664.878C494.5 664.878 507.5 674.778 512.4 684.778" stroke="#442753" stroke-width="4" stroke-miterlimit="10" stroke-linecap="round" stroke-linejoin="round"/>
<path id="XMLID 28" opacity="0.8" d="M518.6 663.678C518.6 663.678 529.6 672.178 534.2 681.078" stroke="#442753" stroke-width="4" stroke-miterlimit="10" stroke-linecap="round" stroke-linejoin="round"/>
<path id="XMLID 30" opacity="0.8" d="M536.3 657.378C536.3 657.378 548.6 662.978 555.8 674.778" stroke="#442753" stroke-width="4" stroke-miterlimit="10" stroke-linecap="round" stroke-linejoin="round"/>
<path id="XMLID 31" opacity="0.8" d="M551.5 652.178C551.5 652.178 573.6 658.478 578.1 667.378" stroke="#442753" stroke-width="4" stroke-miterlimit="10" stroke-linecap="round" stroke-linejoin="round"/>
<path id="XMLID 35" opacity="0.8" d="M569.7 643.178C569.7 643.178 593.2 648.578 597.8 657.478" stroke="#442753" stroke-width="4" stroke-miterlimit="10" stroke-linecap="round" stroke-linejoin="round"/>
<g id="light">
<path id="XMLID 12" d="M237.2 545.878C237.2 545.878 243.2 572.978 264.8 570.878C280.9 569.378 284.8 535.478 260.7 522.578C236.5 509.778 237.2 545.878 237.2 545.878Z" fill="#F4E834" stroke="#D3A548" stroke-width="6" stroke-miterlimit="10"/>
</g>
<g id="front-body">
<path id="XMLID 2" d="M641.4 502.978C630.1 426.778 553.8 374.878 471.1 387.178C455.6 389.478 441 393.878 427.6 399.878C411.9 406.978 393.3 402.978 382 389.978C377 384.178 372.3 379.078 369.8 376.878C362.7 370.678 354.5 364.378 345.1 358.878C340.4 356.078 335.4 353.478 330.1 351.178C324.8 348.878 319.2 346.778 313.4 345.178C311.9 344.778 310.5 344.378 309 343.978C307.5 343.678 306 343.278 304.5 342.978C303 342.678 301.4 342.478 299.9 342.178C298.4 341.878 296.8 341.778 295.2 341.578C288.9 340.878 282.5 340.778 276 341.478C269.5 342.078 263 343.478 256.7 345.778L255.5 346.178L254.9 346.378L254.6 346.478C253.8 346.778 254.3 346.578 254.1 346.678L254 346.778L252 347.678L250 348.578L249 349.078C248.7 349.278 248.2 349.478 247.9 349.678C246.3 350.478 244.8 351.378 243.3 352.178C241.8 353.078 240.5 353.978 239.1 354.878C233.7 358.678 228.7 362.978 224.4 367.678C220.1 372.478 216.2 377.578 212.9 382.778C209.6 388.078 206.7 393.578 204.3 399.278L203.9 400.378L203.5 401.478L202.7 403.478C202.5 404.078 202.2 404.878 201.9 405.678L201.2 407.878C200.7 409.378 200.4 410.778 199.9 412.278C199.5 413.778 199.2 415.178 198.8 416.678C196.2 428.378 195.8 439.878 196.8 450.678C197.9 461.378 200.3 471.378 203.4 480.078C206.5 488.878 210.3 496.478 214.1 502.978C217.9 509.478 221.7 514.778 225 518.978C226.6 521.078 228.2 522.878 229.5 524.478C230.2 525.278 230.8 525.978 231.4 526.578C228.8 533.678 225.4 547.678 234.3 556.478C242.5 564.678 245.1 533.778 262.8 530.978C268.4 530.078 269.8 522.678 264.1 516.978C259.3 512.178 247.9 511.378 237.8 518.478C237.7 518.278 237.5 518.178 237.4 517.978C236.2 516.478 234.8 514.678 233.4 512.678C230.5 508.678 227.1 503.578 223.8 497.478C220.5 491.378 217.3 484.278 214.8 476.178C212.2 468.078 210.4 459.078 209.8 449.578C209.2 439.978 210 429.878 212.6 419.878C213 418.678 213.3 417.378 213.7 416.178C214.1 414.978 214.5 413.678 214.9 412.478L215.6 410.678C215.8 410.078 216 409.478 216.3 408.878L217.1 406.878L217.5 406.078L217.9 405.178C220.1 400.378 222.8 395.678 225.8 391.178C228.8 386.678 232.3 382.478 236 378.678C239.8 374.878 243.9 371.478 248.3 368.678C249.4 367.978 250.5 367.278 251.6 366.678C252.7 366.178 253.7 365.578 254.8 365.078C255.1 364.978 255.3 364.778 255.6 364.678L256.6 364.278L258.7 363.478L260.7 362.678L260.9 362.578L261.4 362.478L262.3 362.178C267.2 360.578 272.3 359.678 277.4 359.378C282.5 359.078 287.7 359.278 292.8 360.078C294.1 360.278 295.3 360.478 296.6 360.678C297.9 360.978 299.1 361.178 300.4 361.478C301.6 361.778 302.9 362.078 304.1 362.478C305.3 362.778 306.5 363.178 307.7 363.578C312.5 365.178 317.2 367.078 321.6 369.178C326 371.378 330.2 373.678 334.2 376.278C342.2 381.378 349.1 387.078 355.2 392.778C357.1 394.478 360.4 398.478 364.2 403.178C375.2 416.878 375.8 436.078 365.6 450.378C345.8 478.178 336.3 512.378 341.5 547.478C352.8 623.678 429.1 675.578 511.8 663.278C594.5 650.978 652.7 579.278 641.4 502.978Z" fill="#00E8AF"/>
</g>
<g id="body-shadow">
<g id="XMLID 54" opacity="0.76">
<path id="XMLID 84" opacity="0.76" d="M641.8 503.3C632.5 441 579.8 395 515.6 387C558.6 406 615.3 418.5 615.8 499.9C616.5 600.1 545.3 652.6 469 657.7C453.8 658.7 438.3 653.7 424 652C450.4 663.7 480.8 668.2 512.3 663.6C595.1 651.3 653.1 579.6 641.8 503.3Z" fill="#12CC9B"/>
</g>
</g>
<path id="XMLID 4" d="M450.2 545.878C466.768 545.878 480.2 531.775 480.2 514.378C480.2 496.981 466.768 482.878 450.2 482.878C433.631 482.878 420.2 496.981 420.2 514.378C420.2 531.775 433.631 545.878 450.2 545.878Z" fill="#442753"/>
<path id="XMLID 6" d="M442.2 519.378C449.048 519.378 454.6 513.557 454.6 506.378C454.6 499.198 449.048 493.378 442.2 493.378C435.352 493.378 429.8 499.198 429.8 506.378C429.8 513.557 435.352 519.378 442.2 519.378Z" fill="white"/>
<path id="XMLID 7" d="M461.4 533.178C465.431 533.178 468.7 529.775 468.7 525.578C468.7 521.38 465.431 517.978 461.4 517.978C457.368 517.978 454.1 521.38 454.1 525.578C454.1 529.775 457.368 533.178 461.4 533.178Z" fill="white"/>
<path id="XMLID 34" d="M546.5 521.078C546 519.878 543.2 513.678 536.6 510.178C525.2 504.078 511.8 510.778 505 514.078C500.2 516.478 494.4 519.278 494.1 523.578C493.8 528.178 499.6 530.278 500.1 534.678C499.6 539.178 493.8 541.278 494.1 545.878C494.4 550.178 500.2 553.078 505 555.378C511.7 558.678 525.2 565.378 536.6 559.278C543.2 555.778 546 549.578 546.5 548.378C547.3 546.478 548.6 540.578 548.6 534.678C548.6 528.778 547.3 522.978 546.5 521.078Z" fill="#00B763"/>
<path id="XMLID 33" opacity="0.8" d="M506.6 527.278C506.6 527.278 524.1 522.978 535.2 522.978" stroke="#442753" stroke-width="4" stroke-miterlimit="10" stroke-linecap="round" stroke-linejoin="round"/>
<path id="XMLID 38" opacity="0.8" d="M506.6 536.378C506.6 536.378 523.7 533.978 531.2 537.478" stroke="#442753" stroke-width="4" stroke-miterlimit="10" stroke-linecap="round" stroke-linejoin="round"/>
<path id="XMLID 22" d="M394 595.478C387.8 597.878 381.5 599.778 375.3 601.078C363.1 589.178 355.9 571.178 357.2 551.478C358.1 538.778 362.3 527.278 368.9 517.978C368.1 521.778 367.5 525.778 367.3 529.778C365.4 555.778 376.1 579.778 394 595.478Z" fill="white"/>
<path id="XMLID 14" d="M412.3 586.678C409 588.578 405.6 590.378 402.1 591.978C401.3 592.378 400.4 592.778 399.6 593.078C393.6 584.678 389.9 573.978 389.9 562.278C389.9 551.978 392.7 542.478 397.5 534.678C397.1 537.778 396.8 540.978 396.8 544.278C396.8 560.578 402.7 575.478 412.3 586.678Z" fill="white"/>
<path id="XMLID 36" opacity="0.3" d="M476.1 566.678C476.1 566.678 476.1 587.778 456.6 599.778" stroke="#212121" stroke-width="6" stroke-miterlimit="10" stroke-linecap="round" stroke-linejoin="round"/>
<path id="XMLID 37" opacity="0.3" d="M492.8 574.978C492.8 574.978 500.4 590.178 492.3 606.878" stroke="#212121" stroke-width="6" stroke-miterlimit="10" stroke-linecap="round" stroke-linejoin="round"/>
<path id="XMLID 15" d="M423.9 579.178C417.3 584.078 410 588.478 402.1 592.078C390.2 597.578 378 601.078 366 602.678" stroke="#0A8E6B" stroke-width="6" stroke-miterlimit="10" stroke-linecap="round" stroke-linejoin="round"/>
<path id="XMLID 39" opacity="0.8" d="M506.6 544.278C506.6 544.278 520 545.578 522.8 548.378" stroke="#442753" stroke-width="4" stroke-miterlimit="10" stroke-linecap="round" stroke-linejoin="round"/>
</g>
</g>
<defs>
<radialGradient id="paint0_radial" cx="0" cy="0" r="1" gradientUnits="userSpaceOnUse" gradientTransform="translate(253.917 560.433) scale(71.3868)">
<stop stop-color="#FFFF00"/>
<stop offset="1" stop-color="#FFFF00" stop-opacity="0"/>
</radialGradient>
</defs>
</svg>
